<?xml version="1.0" encoding="UTF-8"?>
<!DOCTYPE svg PUBLIC "-//W3C//DTD SVG 1.1//EN" "http://www.w3.org/Graphics/SVG/1.1/DTD/svg11.dtd">
<svg xmlns="http://www.w3.org/2000/svg" version="1.1" width="600px" height="562px" style="shape-rendering:geometricPrecision; text-rendering:geometricPrecision; image-rendering:optimizeQuality; fill-rule:evenodd; clip-rule:evenodd" xmlns:xlink="http://www.w3.org/1999/xlink">
<g><path style="opacity:0.985" fill="#010000" d="M 269.5,-0.5 C 284.167,-0.5 298.833,-0.5 313.5,-0.5C 372.422,5.04318 421.255,30.0432 460,74.5C 466.254,63.6601 472.254,52.6601 478,41.5C 479.113,40.2889 480.28,40.2889 481.5,41.5C 484.723,54.2686 486.89,67.2686 488,80.5C 489.698,109.516 491.698,138.516 494,167.5C 494.5,168 495,168.5 495.5,169C 520.84,169.833 546.173,169.666 571.5,168.5C 571.932,163.592 570.765,158.926 568,154.5C 562.66,146.338 557.16,138.338 551.5,130.5C 557.685,116.159 564.518,102.159 572,88.5C 572.561,87.9781 573.228,87.6448 574,87.5C 576.987,89.1541 579.321,91.4875 581,94.5C 589.803,107.756 595.97,122.09 599.5,137.5C 599.5,146.833 599.5,156.167 599.5,165.5C 598.103,176.186 595.936,186.853 593,197.5C 588.833,207.167 584.667,216.833 580.5,226.5C 573.524,227.331 566.524,227.831 559.5,228C 570.091,238.087 580.091,248.587 589.5,259.5C 571.701,242.202 554.035,224.702 536.5,207C 531.5,203.667 526.5,203.667 521.5,207C 514.298,214.369 506.965,221.536 499.5,228.5C 499.167,228.5 498.833,228.5 498.5,228.5C 493.015,227.673 487.348,227.173 481.5,227C 475.966,221.096 472.132,214.263 470,206.5C 465.127,213.076 460.627,219.91 456.5,227C 437.824,227.167 419.158,227.667 400.5,228.5C 415.597,271.008 418.431,314.341 409,358.5C 404.718,382.347 397.051,405.014 386,426.5C 384.457,428.378 382.624,429.878 380.5,431C 362.82,431.562 345.154,431.229 327.5,430C 324.442,428.782 321.776,426.949 319.5,424.5C 317.641,426.192 315.641,427.692 313.5,429C 295.5,429.667 277.5,429.667 259.5,429C 257.113,428.024 255.946,426.191 256,423.5C 253.252,425.458 250.418,427.291 247.5,429C 212.327,429.225 177.16,429.725 142,430.5C 137.339,430.833 133.339,429.5 130,426.5C 123.746,415.66 117.746,404.66 112,393.5C 107.428,405.144 101.928,416.311 95.5,427C 71.4923,422.498 47.4923,417.665 23.5,412.5C 14.4943,401.801 6.49434,390.468 -0.5,378.5C -0.5,377.5 -0.5,376.5 -0.5,375.5C 2.97207,369.229 6.47207,362.895 10,356.5C 13.4055,353.216 16.9055,350.05 20.5,347C 32.0078,340.749 43.0078,333.749 53.5,326C 63.8375,321.498 73.8375,316.498 83.5,311C 53.2341,232.386 62.0674,158.553 110,89.5C 150.682,37.5707 203.849,7.57067 269.5,-0.5 Z M 96.5,339.5 C 100.872,347.949 103.872,356.949 105.5,366.5C 95.177,365.899 84.8436,365.399 74.5,365C 69.0592,364.279 63.7258,363.112 58.5,361.5C 72.9518,356.938 85.6185,349.604 96.5,339.5 Z"/></g>
<g><path style="opacity:1" fill="#fecb05" d="M 467.5,167.5 C 466.686,165.369 466.186,163.036 466,160.5C 465.503,163.146 465.336,165.813 465.5,168.5C 432.5,168.5 399.5,168.5 366.5,168.5C 357.283,152.614 344.949,139.614 329.5,129.5C 328.686,127.234 328.186,124.9 328,122.5C 327.768,123.737 327.268,124.737 326.5,125.5C 326.844,121.772 327.51,118.105 328.5,114.5C 327.995,113.081 326.995,112.415 325.5,112.5C 323.449,114.768 321.449,117.768 319.5,121.5C 274.703,102.014 233.036,107.18 194.5,137C 156.166,173.649 145.666,217.149 163,267.5C 166.492,275.153 170.492,282.487 175,289.5C 183.084,296.58 190.917,304.08 198.5,312C 202.167,314.333 205.833,316.667 209.5,319C 210.252,319.671 210.586,320.504 210.5,321.5C 194.956,336.118 176.956,346.952 156.5,354C 152.572,355.325 148.572,355.658 144.5,355C 137.622,327.697 129.122,300.864 119,274.5C 117.737,272.203 115.903,271.37 113.5,272C 103.42,281.69 93.92,291.857 85,302.5C 70.9095,264.596 66.9095,225.596 73,185.5C 75.1238,172.656 78.6238,160.323 83.5,148.5C 89.237,137.026 95.0703,125.359 101,113.5C 107.058,103.442 113.892,93.9419 121.5,85C 120.906,84.5357 120.239,84.369 119.5,84.5C 179.562,15.9784 254.562,-9.18829 344.5,9C 389.139,19.3925 426.306,41.8925 456,76.5C 456.973,78.3921 457.64,80.3921 458,82.5C 460.892,110.879 464.059,139.213 467.5,167.5 Z"/></g>
<g><path style="opacity:1" fill="#040200" d="M 429.5,55.5 C 432.127,55.2933 433.793,56.46 434.5,59C 432.8,65.2652 430.8,71.4318 428.5,77.5C 419.643,80.5084 410.976,84.0084 402.5,88C 400.473,89.3957 400.14,91.0624 401.5,93C 409.157,94.0657 416.824,95.0657 424.5,96C 428.123,100.561 429.29,105.728 428,111.5C 420.528,136.621 403.694,147.788 377.5,145C 372.904,144.536 368.571,143.203 364.5,141C 363.167,140 363.167,139 364.5,138C 372.5,135.333 380.5,132.667 388.5,130C 392.165,128.503 395.498,126.503 398.5,124C 389.655,124.658 382.155,121.825 376,115.5C 374.556,112.945 373.389,110.279 372.5,107.5C 374.552,101.728 377.386,96.3945 381,91.5C 389.5,81.6667 398.667,72.5 408.5,64C 414.94,59.4356 421.94,56.6022 429.5,55.5 Z"/></g>
<g><path style="opacity:1" fill="#fecd1e" d="M 325.5,112.5 C 322.952,118.162 320.618,123.829 318.5,129.5C 275.011,109.834 234.345,115.334 196.5,146C 162.911,180.767 154.411,220.6 171,265.5C 171.333,262.5 171.667,259.5 172,256.5C 172.483,257.448 172.649,258.448 172.5,259.5C 171.947,269.182 173.447,278.515 177,287.5C 181.38,293.925 187.213,298.259 194.5,300.5C 196.77,301.739 199.77,302.905 203.5,304C 208.056,307.764 212.723,311.264 217.5,314.5C 215.5,317.167 213.167,319.5 210.5,321.5C 210.586,320.504 210.252,319.671 209.5,319C 205.833,316.667 202.167,314.333 198.5,312C 190.917,304.08 183.084,296.58 175,289.5C 170.492,282.487 166.492,275.153 163,267.5C 145.666,217.149 156.166,173.649 194.5,137C 233.036,107.18 274.703,102.014 319.5,121.5C 321.449,117.768 323.449,114.768 325.5,112.5 Z"/></g>
<g><path style="opacity:1" fill="#fecf33" d="M 318.5,129.5 C 317.99,132.539 317.323,135.539 316.5,138.5C 315.751,137.469 315.085,136.302 314.5,135C 270.953,115.853 231.787,122.353 197,154.5C 171.427,183.18 163.594,216.18 173.5,253.5C 173.795,255.735 173.461,257.735 172.5,259.5C 172.649,258.448 172.483,257.448 172,256.5C 171.667,259.5 171.333,262.5 171,265.5C 154.411,220.6 162.911,180.767 196.5,146C 234.345,115.334 275.011,109.834 318.5,129.5 Z"/></g>
<g><path style="opacity:1" fill="#fed141" d="M 316.5,138.5 C 316.672,139.492 316.338,140.158 315.5,140.5C 314.459,140.96 313.625,142.293 313,144.5C 280.065,127.427 247.899,128.927 216.5,149C 188.513,169.811 175.846,197.645 178.5,232.5C 178.039,234.55 177.372,236.55 176.5,238.5C 176.624,239.107 176.957,239.44 177.5,239.5C 176.144,244.271 174.811,248.937 173.5,253.5C 163.594,216.18 171.427,183.18 197,154.5C 231.787,122.353 270.953,115.853 314.5,135C 315.085,136.302 315.751,137.469 316.5,138.5 Z"/></g>
<g><path style="opacity:1" fill="#fed34e" d="M 315.5,140.5 C 315.247,144.04 314.581,147.373 313.5,150.5C 313.649,149.448 313.483,148.448 313,147.5C 277.822,130.202 244.322,133.369 212.5,157C 197.072,170.772 187.072,187.772 182.5,208C 181.905,213.415 181.905,218.582 182.5,223.5C 181.403,226.686 180.07,229.686 178.5,232.5C 175.846,197.645 188.513,169.811 216.5,149C 247.899,128.927 280.065,127.427 313,144.5C 313.625,142.293 314.459,140.96 315.5,140.5 Z"/></g>
<g><path style="opacity:1" fill="#ead106" d="M 119.5,84.5 C 120.239,84.369 120.906,84.5357 121.5,85C 113.892,93.9419 107.058,103.442 101,113.5C 95.0703,125.359 89.237,137.026 83.5,148.5C 91.8947,125.034 103.895,103.701 119.5,84.5 Z"/></g>
<g><path style="opacity:1" fill="#ffd558" d="M 313.5,150.5 C 313.007,152.806 312.674,155.139 312.5,157.5C 311.751,156.469 311.085,155.302 310.5,154C 278.585,137.216 247.918,139.216 218.5,160C 201.453,174.256 191.286,192.423 188,214.5C 186.303,217.672 184.47,220.672 182.5,223.5C 181.905,218.582 181.905,213.415 182.5,208C 187.072,187.772 197.072,170.772 212.5,157C 244.322,133.369 277.822,130.202 313,147.5C 313.483,148.448 313.649,149.448 313.5,150.5 Z"/></g>
<g><path style="opacity:1" fill="#fecf33" d="M 366.5,168.5 C 356.985,168.173 347.652,168.506 338.5,169.5C 331.888,166.357 328.054,161.024 327,153.5C 325.285,144.182 325.118,134.849 326.5,125.5C 327.268,124.737 327.768,123.737 328,122.5C 328.186,124.9 328.686,127.234 329.5,129.5C 344.949,139.614 357.283,152.614 366.5,168.5 Z"/></g>
<g><path style="opacity:1" fill="#fdd764" d="M 312.5,157.5 C 312.702,159.95 312.369,162.283 311.5,164.5C 291.375,150.313 269.375,146.813 245.5,154C 225.153,161.848 210.486,175.682 201.5,195.5C 201.624,196.107 201.957,196.44 202.5,196.5C 191.868,209.423 183.534,223.756 177.5,239.5C 176.957,239.44 176.624,239.107 176.5,238.5C 177.372,236.55 178.039,234.55 178.5,232.5C 180.07,229.686 181.403,226.686 182.5,223.5C 184.47,220.672 186.303,217.672 188,214.5C 191.286,192.423 201.453,174.256 218.5,160C 247.918,139.216 278.585,137.216 310.5,154C 311.085,155.302 311.751,156.469 312.5,157.5 Z"/></g>
<g><path style="opacity:1" fill="#fdd96f" d="M 311.5,164.5 C 311.737,165.791 311.404,166.791 310.5,167.5C 310.631,166.761 310.464,166.094 310,165.5C 309.667,167.5 309.333,169.5 309,171.5C 290.529,157.725 270.363,154.225 248.5,161C 239.608,164.894 230.941,169.228 222.5,174C 221.262,174.69 221.262,175.19 222.5,175.5C 215.159,181.842 208.492,188.842 202.5,196.5C 201.957,196.44 201.624,196.107 201.5,195.5C 210.486,175.682 225.153,161.848 245.5,154C 269.375,146.813 291.375,150.313 311.5,164.5 Z"/></g>
<g><path style="opacity:1" fill="#fede7e" d="M 310.5,167.5 C 310.5,173.833 310.5,180.167 310.5,186.5C 310.657,187.873 310.49,189.207 310,190.5C 309.667,188.5 309.333,186.5 309,184.5C 289.262,166.322 267.262,162.988 243,174.5C 241.416,173.139 239.582,172.472 237.5,172.5C 231.986,170.803 226.986,171.803 222.5,175.5C 221.262,175.19 221.262,174.69 222.5,174C 230.941,169.228 239.608,164.894 248.5,161C 270.363,154.225 290.529,157.725 309,171.5C 309.333,169.5 309.667,167.5 310,165.5C 310.464,166.094 310.631,166.761 310.5,167.5 Z"/></g>
<g><path style="opacity:1" fill="#ffec12" d="M 467.5,167.5 C 424.846,169.495 381.846,170.161 338.5,169.5C 347.652,168.506 356.985,168.173 366.5,168.5C 399.5,168.5 432.5,168.5 465.5,168.5C 465.336,165.813 465.503,163.146 466,160.5C 466.186,163.036 466.686,165.369 467.5,167.5 Z"/></g>
<g><path style="opacity:1" fill="#a3820a" d="M 467.5,167.5 C 468.404,168.209 468.737,169.209 468.5,170.5C 424.997,170.832 381.663,170.499 338.5,169.5C 381.846,170.161 424.846,169.495 467.5,167.5 Z"/></g>
<g><path style="opacity:1" fill="#fee191" d="M 310.5,186.5 C 312.874,200.243 319.207,211.91 329.5,221.5C 329.167,221.5 328.833,221.5 328.5,221.5C 327.761,221.631 327.094,221.464 326.5,221C 324.353,217.885 321.853,215.052 319,212.5C 322.206,246.126 307.373,266.792 274.5,274.5C 273.914,274.291 273.414,273.957 273,273.5C 270.688,273.955 268.688,274.955 267,276.5C 266.517,275.552 266.351,274.552 266.5,273.5C 266.5,270.833 266.5,268.167 266.5,265.5C 267.167,264.5 267.833,263.5 268.5,262.5C 268.5,263.5 268.5,264.5 268.5,265.5C 288.948,264.885 302.448,254.885 309,235.5C 313.306,204.77 300.139,187.103 269.5,182.5C 264.749,182.916 260.083,183.75 255.5,185C 254.829,185.986 254.829,187.153 255.5,188.5C 255.167,188.5 254.833,188.5 254.5,188.5C 250.093,181.757 244.426,176.424 237.5,172.5C 239.582,172.472 241.416,173.139 243,174.5C 267.262,162.988 289.262,166.322 309,184.5C 309.333,186.5 309.667,188.5 310,190.5C 310.49,189.207 310.657,187.873 310.5,186.5 Z"/></g>
<g><path style="opacity:1" fill="#ffe6a3" d="M 268.5,262.5 C 268.5,261.833 268.5,261.167 268.5,260.5C 290.908,258.592 303.241,246.426 305.5,224C 300.749,196.276 284.415,184.776 256.5,189.5C 256.5,188.833 256.167,188.5 255.5,188.5C 254.829,187.153 254.829,185.986 255.5,185C 260.083,183.75 264.749,182.916 269.5,182.5C 300.139,187.103 313.306,204.77 309,235.5C 302.448,254.885 288.948,264.885 268.5,265.5C 268.5,264.5 268.5,263.5 268.5,262.5 Z"/></g>
<g><path style="opacity:1" fill="#ffe9af" d="M 268.5,260.5 C 268.261,258.533 268.594,256.699 269.5,255C 295.221,249.73 304.054,234.563 296,209.5C 287.11,195.764 275.11,191.43 260,196.5C 258.82,194.14 257.653,191.807 256.5,189.5C 284.415,184.776 300.749,196.276 305.5,224C 303.241,246.426 290.908,258.592 268.5,260.5 Z"/></g>
<g><path style="opacity:1" fill="#feebbb" d="M 254.5,188.5 C 254.833,188.5 255.167,188.5 255.5,188.5C 256.167,188.5 256.5,188.833 256.5,189.5C 257.653,191.807 258.82,194.14 260,196.5C 275.11,191.43 287.11,195.764 296,209.5C 304.054,234.563 295.221,249.73 269.5,255C 268.594,256.699 268.261,258.533 268.5,260.5C 268.5,261.167 268.5,261.833 268.5,262.5C 267.833,263.5 267.167,264.5 266.5,265.5C 266.966,259.509 267.299,253.509 267.5,247.5C 268.29,248.609 268.79,249.942 269,251.5C 269.464,250.906 269.631,250.239 269.5,249.5C 285.36,247.141 293.693,237.975 294.5,222C 290.359,204.364 279.526,197.197 262,200.5C 261.241,198.937 260.074,197.937 258.5,197.5C 257.441,194.382 256.108,191.382 254.5,188.5 Z"/></g>
<g><path style="opacity:1" fill="#feefc8" d="M 258.5,197.5 C 260.074,197.937 261.241,198.937 262,200.5C 279.526,197.197 290.359,204.364 294.5,222C 293.693,237.975 285.36,247.141 269.5,249.5C 269.5,247.5 269.5,245.5 269.5,243.5C 282.315,241.212 288.482,233.545 288,220.5C 284.097,208.63 275.93,203.464 263.5,205C 263.026,203.271 262.026,202.105 260.5,201.5C 259.833,200.167 259.167,198.833 258.5,197.5 Z"/></g>
<g><path style="opacity:1" fill="#ee1d24" d="M 589.5,259.5 C 589.833,262.833 590.167,266.167 590.5,269.5C 588.507,272.495 586.507,275.495 584.5,278.5C 570.252,291.245 556.419,304.578 543,318.5C 542.536,319.094 542.369,319.761 542.5,320.5C 539.667,318.522 536.667,316.689 533.5,315C 530.5,314.333 527.5,314.333 524.5,315C 523.058,315.377 522.058,316.21 521.5,317.5C 519.629,317.859 518.129,318.859 517,320.5C 501.333,304.833 485.667,289.167 470,273.5C 467.297,269.077 466.797,264.411 468.5,259.5C 479.167,249.5 489.5,239.167 499.5,228.5C 506.965,221.536 514.298,214.369 521.5,207C 526.5,203.667 531.5,203.667 536.5,207C 554.035,224.702 571.701,242.202 589.5,259.5 Z"/></g>
<g><path style="opacity:1" fill="#fef3d7" d="M 260.5,201.5 C 262.026,202.105 263.026,203.271 263.5,205C 275.93,203.464 284.097,208.63 288,220.5C 288.482,233.545 282.315,241.212 269.5,243.5C 269.5,245.5 269.5,247.5 269.5,249.5C 269.631,250.239 269.464,250.906 269,251.5C 268.79,249.942 268.29,248.609 267.5,247.5C 267.5,244.833 267.5,242.167 267.5,239.5C 268.434,238.432 268.768,237.099 268.5,235.5C 278.369,233.793 281.869,228.126 279,218.5C 275.992,213.778 271.826,212.111 266.5,213.5C 265.808,212.975 265.308,212.308 265,211.5C 264.601,211.728 264.435,212.062 264.5,212.5C 263.504,208.816 262.171,205.149 260.5,201.5 Z"/></g>
<g><path style="opacity:1" fill="#fcf7ec" d="M 267.5,239.5 C 266.829,230.457 265.829,221.457 264.5,212.5C 264.435,212.062 264.601,211.728 265,211.5C 265.308,212.308 265.808,212.975 266.5,213.5C 271.826,212.111 275.992,213.778 279,218.5C 281.869,228.126 278.369,233.793 268.5,235.5C 268.768,237.099 268.434,238.432 267.5,239.5 Z"/></g>
<g><path style="opacity:1" fill="#fadb7c" d="M 208.5,230.5 C 213.126,229.7 216.96,231.034 220,234.5C 230.037,248.833 226.204,255 208.5,253C 203.105,251.554 198.605,248.721 195,244.5C 197.54,238.124 202.04,233.457 208.5,230.5 Z"/></g>
<g><path style="opacity:1" fill="#fed761" d="M 328.5,221.5 C 328.833,221.5 329.167,221.5 329.5,221.5C 335.806,224.988 342.14,228.488 348.5,232C 353.311,234.985 357.644,238.485 361.5,242.5C 360.504,242.586 359.671,242.252 359,241.5C 357.119,250.643 353.953,259.31 349.5,267.5C 347.234,268.314 344.9,268.814 342.5,269C 343.416,269.278 344.082,269.778 344.5,270.5C 333.833,270.5 323.167,270.5 312.5,270.5C 315.942,269.252 319.608,268.419 323.5,268C 333.536,256.051 338.203,242.551 337.5,227.5C 333.917,226.22 330.917,224.22 328.5,221.5 Z"/></g>
<g><path style="opacity:1" fill="#45100c" d="M 498.5,228.5 C 498.833,228.5 499.167,228.5 499.5,228.5C 489.5,239.167 479.167,249.5 468.5,259.5C 477.779,248.553 487.779,238.22 498.5,228.5 Z"/></g>
<g><path style="opacity:1" fill="#fdd038" d="M 361.5,242.5 C 370.463,249.428 376.13,258.428 378.5,269.5C 367.346,270.495 356.012,270.828 344.5,270.5C 344.082,269.778 343.416,269.278 342.5,269C 344.9,268.814 347.234,268.314 349.5,267.5C 353.953,259.31 357.119,250.643 359,241.5C 359.671,242.252 360.504,242.586 361.5,242.5 Z"/></g>
<g><path style="opacity:1" fill="#0f0201" d="M 525.5,256.5 C 536.847,256.88 540.347,262.213 536,272.5C 529.101,277.255 523.768,275.922 520,268.5C 519.312,263.352 521.145,259.352 525.5,256.5 Z"/></g>
<g><path style="opacity:1" fill="#38110b" d="M 589.5,259.5 C 591.531,262.708 591.865,266.041 590.5,269.5C 590.167,266.167 589.833,262.833 589.5,259.5 Z"/></g>
<g><path style="opacity:1" fill="#fddd80" d="M 328.5,221.5 C 330.917,224.22 333.917,226.22 337.5,227.5C 338.203,242.551 333.536,256.051 323.5,268C 319.608,268.419 315.942,269.252 312.5,270.5C 310.167,270.5 307.833,270.5 305.5,270.5C 304.414,270.62 303.747,271.287 303.5,272.5C 302.588,278.226 301.588,283.893 300.5,289.5C 300.115,285.627 299.782,281.627 299.5,277.5C 288.839,282.999 277.506,285.999 265.5,286.5C 264.355,289.748 263.521,293.081 263,296.5C 262.536,295.906 262.369,295.239 262.5,294.5C 263.087,287.235 264.421,280.235 266.5,273.5C 266.351,274.552 266.517,275.552 267,276.5C 268.688,274.955 270.688,273.955 273,273.5C 273.414,273.957 273.914,274.291 274.5,274.5C 307.373,266.792 322.206,246.126 319,212.5C 321.853,215.052 324.353,217.885 326.5,221C 327.094,221.464 327.761,221.631 328.5,221.5 Z"/></g>
<g><path style="opacity:1" fill="#221c0c" d="M 378.5,269.5 C 379.043,269.56 379.376,269.893 379.5,270.5C 354.67,271.829 330.003,271.829 305.5,270.5C 307.833,270.5 310.167,270.5 312.5,270.5C 323.167,270.5 333.833,270.5 344.5,270.5C 356.012,270.828 367.346,270.495 378.5,269.5 Z"/></g>
<g><path style="opacity:0.459" fill="#35100a" d="M 468.5,259.5 C 466.797,264.411 467.297,269.077 470,273.5C 485.667,289.167 501.333,304.833 517,320.5C 518.129,318.859 519.629,317.859 521.5,317.5C 520.109,319.89 518.109,321.557 515.5,322.5C 500.588,306.085 485.088,290.085 469,274.5C 465.965,269.446 465.798,264.446 468.5,259.5 Z"/></g>
<g><path style="opacity:0.533" fill="#230b05" d="M 590.5,269.5 C 590.103,273.565 588.103,276.565 584.5,278.5C 586.507,275.495 588.507,272.495 590.5,269.5 Z"/></g>
<g><path style="opacity:1" fill="#fdd972" d="M 300.5,289.5 C 300.806,292.385 300.473,295.052 299.5,297.5C 299.799,295.396 299.466,293.396 298.5,291.5C 287.011,296.464 275.011,298.464 262.5,297.5C 262.655,300.716 261.655,303.383 259.5,305.5C 259.742,301.521 260.742,297.854 262.5,294.5C 262.369,295.239 262.536,295.906 263,296.5C 263.521,293.081 264.355,289.748 265.5,286.5C 277.506,285.999 288.839,282.999 299.5,277.5C 299.782,281.627 300.115,285.627 300.5,289.5 Z"/></g>
<g><path style="opacity:0.459" fill="#280d06" d="M 584.5,278.5 C 570.833,292.833 556.833,306.833 542.5,320.5C 542.369,319.761 542.536,319.094 543,318.5C 556.419,304.578 570.252,291.245 584.5,278.5 Z"/></g>
<g><path style="opacity:1" fill="#fad140" d="M 217.5,314.5 C 212.723,311.264 208.056,307.764 203.5,304C 199.77,302.905 196.77,301.739 194.5,300.5C 201.841,300.666 209.174,300.5 216.5,300C 223.842,298.751 229.342,294.917 233,288.5C 228.653,297.506 223.486,306.173 217.5,314.5 Z"/></g>
<g><path style="opacity:1" fill="#fcd55b" d="M 299.5,297.5 C 299.72,302.1 299.054,306.433 297.5,310.5C 297.672,309.508 297.338,308.842 296.5,308.5C 296.631,307.624 296.298,306.957 295.5,306.5C 283.771,309.955 271.771,311.289 259.5,310.5C 259.628,312.655 259.128,314.655 258,316.5C 257.601,316.272 257.435,315.938 257.5,315.5C 257.322,311.878 257.989,308.544 259.5,305.5C 261.655,303.383 262.655,300.716 262.5,297.5C 275.011,298.464 287.011,296.464 298.5,291.5C 299.466,293.396 299.799,295.396 299.5,297.5 Z"/></g>
<g><path style="opacity:1" fill="#fed248" d="M 296.5,308.5 C 297.027,312.244 296.027,315.411 293.5,318C 280.943,320.89 268.277,321.723 255.5,320.5C 255.402,318.447 256.069,316.78 257.5,315.5C 257.435,315.938 257.601,316.272 258,316.5C 259.128,314.655 259.628,312.655 259.5,310.5C 271.771,311.289 283.771,309.955 295.5,306.5C 296.298,306.957 296.631,307.624 296.5,308.5 Z"/></g>
<g><path style="opacity:1" fill="#580e0f" d="M 542.5,320.5 C 542.5,321.167 542.5,321.833 542.5,322.5C 539.714,320.887 537.047,319.054 534.5,317C 530.113,316.294 525.78,316.46 521.5,317.5C 522.058,316.21 523.058,315.377 524.5,315C 527.5,314.333 530.5,314.333 533.5,315C 536.667,316.689 539.667,318.522 542.5,320.5 Z"/></g>
<g><path style="opacity:1" fill="#fdd035" d="M 296.5,308.5 C 297.338,308.842 297.672,309.508 297.5,310.5C 297.666,314.846 297.499,319.179 297,323.5C 293.385,325.72 289.885,328.053 286.5,330.5C 275.329,330.709 263.996,330.375 252.5,329.5C 253.265,326.33 254.265,323.33 255.5,320.5C 268.277,321.723 280.943,320.89 293.5,318C 296.027,315.411 297.027,312.244 296.5,308.5 Z"/></g>
<g><path style="opacity:1" fill="#641713" d="M 515.5,322.5 C 502.088,337.414 488.088,351.914 473.5,366C 472.906,366.464 472.239,366.631 471.5,366.5C 485.833,351.5 500.5,336.833 515.5,322.5 Z"/></g>
<g><path style="opacity:1" fill="#4c140f" d="M 544.5,324.5 C 545.833,325.167 546.833,326.167 547.5,327.5C 545.5,327.5 544.5,326.5 544.5,324.5 Z"/></g>
<g><path style="opacity:1" fill="#4c140f" d="M 547.5,327.5 C 548.833,328.167 549.833,329.167 550.5,330.5C 548.5,330.5 547.5,329.5 547.5,327.5 Z"/></g>
<g><path style="opacity:1" fill="#ed1d24" d="M 542.5,322.5 C 543.5,322.833 544.167,323.5 544.5,324.5C 544.5,326.5 545.5,327.5 547.5,327.5C 547.5,329.5 548.5,330.5 550.5,330.5C 550.5,332.5 551.5,333.5 553.5,333.5C 553.5,335.5 554.5,336.5 556.5,336.5C 556.5,338.5 557.5,339.5 559.5,339.5C 559.5,341.5 560.5,342.5 562.5,342.5C 562.5,344.5 563.5,345.5 565.5,345.5C 565.5,347.5 566.5,348.5 568.5,348.5C 568.5,350.5 569.5,351.5 571.5,351.5C 571.5,353.5 572.5,354.5 574.5,354.5C 574.5,356.5 575.5,357.5 577.5,357.5C 577.5,359.5 578.5,360.5 580.5,360.5C 580.5,362.5 581.5,363.5 583.5,363.5C 583.5,365.5 584.5,366.5 586.5,366.5C 586.738,368.404 587.738,369.738 589.5,370.5C 590.051,373.807 590.384,377.14 590.5,380.5C 589.326,381.514 588.66,382.847 588.5,384.5C 570.833,401.5 553.5,418.833 536.5,436.5C 536.158,437.338 535.492,437.672 534.5,437.5C 530.833,437.5 527.167,437.5 523.5,437.5C 522.508,437.672 521.842,437.338 521.5,436.5C 504.535,419.035 487.368,401.701 470,384.5C 467.21,380.092 466.71,375.425 468.5,370.5C 470.262,369.738 471.262,368.404 471.5,366.5C 472.239,366.631 472.906,366.464 473.5,366C 488.088,351.914 502.088,337.414 515.5,322.5C 518.109,321.557 520.109,319.89 521.5,317.5C 525.78,316.46 530.113,316.294 534.5,317C 537.047,319.054 539.714,320.887 542.5,322.5 Z"/></g>
<g><path style="opacity:1" fill="#4c1410" d="M 550.5,330.5 C 551.833,331.167 552.833,332.167 553.5,333.5C 551.5,333.5 550.5,332.5 550.5,330.5 Z"/></g>
<g><path style="opacity:1" fill="#4c1410" d="M 553.5,333.5 C 554.833,334.167 555.833,335.167 556.5,336.5C 554.5,336.5 553.5,335.5 553.5,333.5 Z"/></g>
<g><path style="opacity:1" fill="#f7da05" d="M 339.5,338.5 C 326.562,337.187 313.562,337.187 300.5,338.5C 293.66,347.512 288.993,357.512 286.5,368.5C 298.833,368.5 311.167,368.5 323.5,368.5C 323.183,364.298 323.517,360.298 324.5,356.5C 324.5,360.833 324.5,365.167 324.5,369.5C 311.5,369.5 298.5,369.5 285.5,369.5C 285.5,367.5 285.5,365.5 285.5,363.5C 289.332,353.667 294.332,344.5 300.5,336C 314.5,335.333 328.5,335.333 342.5,336C 341.627,337.045 340.627,337.878 339.5,338.5 Z"/></g>
<g><path style="opacity:1" fill="#fecb05" d="M 339.5,338.5 C 333.867,343.776 329.2,349.776 325.5,356.5C 325.167,356.5 324.833,356.5 324.5,356.5C 323.517,360.298 323.183,364.298 323.5,368.5C 311.167,368.5 298.833,368.5 286.5,368.5C 288.993,357.512 293.66,347.512 300.5,338.5C 313.562,337.187 326.562,337.187 339.5,338.5 Z"/></g>
<g><path style="opacity:1" fill="#facb05" d="M 354.5,335.5 C 364.839,335.334 375.172,335.5 385.5,336C 380,341.5 374.5,347 369,352.5C 368.707,358.867 368.207,365.2 367.5,371.5C 358.833,371.5 350.167,371.5 341.5,371.5C 341.52,365.933 342.687,360.6 345,355.5C 347.908,348.686 351.074,342.019 354.5,335.5 Z"/></g>
<g><path style="opacity:1" fill="#4c140f" d="M 556.5,336.5 C 557.833,337.167 558.833,338.167 559.5,339.5C 557.5,339.5 556.5,338.5 556.5,336.5 Z"/></g>
<g><path style="opacity:1" fill="#0e0201" d="M 525.5,337.5 C 536.847,337.88 540.347,343.213 536,353.5C 529.101,358.255 523.768,356.922 520,349.5C 519.312,344.352 521.145,340.352 525.5,337.5 Z"/></g>
<g><path style="opacity:1" fill="#fbcb0d" d="M 252.5,329.5 C 263.996,330.375 275.329,330.709 286.5,330.5C 278.541,336.62 270.708,342.954 263,349.5C 260.324,356.692 258.158,364.026 256.5,371.5C 244.495,371.667 232.495,371.5 220.5,371C 234.19,359.431 244.857,345.597 252.5,329.5 Z"/></g>
<g><path style="opacity:1" fill="#4c1410" d="M 559.5,339.5 C 560.833,340.167 561.833,341.167 562.5,342.5C 560.5,342.5 559.5,341.5 559.5,339.5 Z"/></g>
<g><path style="opacity:1" fill="#4c1410" d="M 562.5,342.5 C 563.833,343.167 564.833,344.167 565.5,345.5C 563.5,345.5 562.5,344.5 562.5,342.5 Z"/></g>
<g><path style="opacity:1" fill="#4c1410" d="M 565.5,345.5 C 566.833,346.167 567.833,347.167 568.5,348.5C 566.5,348.5 565.5,347.5 565.5,345.5 Z"/></g>
<g><path style="opacity:1" fill="#4d1410" d="M 568.5,348.5 C 569.833,349.167 570.833,350.167 571.5,351.5C 569.5,351.5 568.5,350.5 568.5,348.5 Z"/></g>
<g><path style="opacity:1" fill="#4d1410" d="M 571.5,351.5 C 572.833,352.167 573.833,353.167 574.5,354.5C 572.5,354.5 571.5,353.5 571.5,351.5 Z"/></g>
<g><path style="opacity:1" fill="#4d1410" d="M 574.5,354.5 C 575.833,355.167 576.833,356.167 577.5,357.5C 575.5,357.5 574.5,356.5 574.5,354.5 Z"/></g>
<g><path style="opacity:1" fill="#4d1410" d="M 577.5,357.5 C 578.833,358.167 579.833,359.167 580.5,360.5C 578.5,360.5 577.5,359.5 577.5,357.5 Z"/></g>
<g><path style="opacity:1" fill="#4d1410" d="M 580.5,360.5 C 581.833,361.167 582.833,362.167 583.5,363.5C 581.5,363.5 580.5,362.5 580.5,360.5 Z"/></g>
<g><path style="opacity:1" fill="#4d1410" d="M 583.5,363.5 C 584.833,364.167 585.833,365.167 586.5,366.5C 584.5,366.5 583.5,365.5 583.5,363.5 Z"/></g>
<g><path style="opacity:1" fill="#370f0a" d="M 471.5,366.5 C 471.262,368.404 470.262,369.738 468.5,370.5C 468.738,368.596 469.738,367.262 471.5,366.5 Z"/></g>
<g><path style="opacity:1" fill="#330e09" d="M 586.5,366.5 C 588.262,367.262 589.262,368.596 589.5,370.5C 587.738,369.738 586.738,368.404 586.5,366.5 Z"/></g>
<g><path style="opacity:1" fill="#927504" d="M 324.5,356.5 C 324.833,356.5 325.167,356.5 325.5,356.5C 325.5,361.167 325.5,365.833 325.5,370.5C 311.833,370.5 298.167,370.5 284.5,370.5C 284.198,367.941 284.532,365.607 285.5,363.5C 285.5,365.5 285.5,367.5 285.5,369.5C 298.5,369.5 311.5,369.5 324.5,369.5C 324.5,365.167 324.5,360.833 324.5,356.5 Z"/></g>
<g><path style="opacity:0.252" fill="#190603" d="M 589.5,370.5 C 590.972,372.117 591.639,374.117 591.5,376.5C 591.489,378.045 591.156,379.378 590.5,380.5C 590.384,377.14 590.051,373.807 589.5,370.5 Z"/></g>
<g><path style="opacity:0.327" fill="#150302" d="M 590.5,380.5 C 590.771,382.38 590.104,383.713 588.5,384.5C 588.66,382.847 589.326,381.514 590.5,380.5 Z"/></g>
<g><path style="opacity:0.327" fill="#240904" d="M 468.5,370.5 C 466.71,375.425 467.21,380.092 470,384.5C 487.368,401.701 504.535,419.035 521.5,436.5C 503.585,420.087 486.085,403.087 469,385.5C 465.965,380.446 465.798,375.446 468.5,370.5 Z"/></g>
<g><path style="opacity:1" fill="#090100" d="M 525.5,397.5 C 535.77,397.08 539.604,401.747 537,411.5C 531.667,416.833 526.333,416.833 521,411.5C 518.227,405.395 519.727,400.728 525.5,397.5 Z"/></g>
<g><path style="opacity:0.322" fill="#1a0402" d="M 588.5,384.5 C 572.421,402.082 555.754,419.248 538.5,436C 537.906,436.464 537.239,436.631 536.5,436.5C 553.5,418.833 570.833,401.5 588.5,384.5 Z"/></g>
<g><path style="opacity:0.173" fill="#fefffe" d="M 241.5,430.5 C 242.922,430.75 243.922,431.583 244.5,433C 240.141,434.228 239.141,433.395 241.5,430.5 Z"/></g>
<g><path style="opacity:0.875" fill="#000000" d="M 231.5,433.5 C 233.833,433.5 236.167,433.5 238.5,433.5C 239.363,435.895 239.363,438.229 238.5,440.5C 233.615,442.628 228.615,444.462 223.5,446C 229.033,451.198 234.2,456.698 239,462.5C 241.776,468.134 240.609,472.634 235.5,476C 224.167,476.667 212.833,476.667 201.5,476C 198.898,475.117 196.731,473.617 195,471.5C 193.427,460.559 193.094,449.559 194,438.5C 196.47,436.513 199.303,436.013 202.5,437C 203.486,447.084 203.819,457.251 203.5,467.5C 212.46,468.415 221.46,468.748 230.5,468.5C 230.649,467.448 230.483,466.448 230,465.5C 224.652,459.985 219.152,454.652 213.5,449.5C 212.582,447.242 211.915,444.909 211.5,442.5C 211.818,441.353 212.484,440.519 213.5,440C 219.713,438.099 225.713,435.932 231.5,433.5 Z"/></g>
<g><path style="opacity:0.967" fill="#010101" d="M 523.5,437.5 C 527.167,437.5 530.833,437.5 534.5,437.5C 552.028,454.524 569.862,472.19 588,490.5C 592.474,496.39 592.641,502.39 588.5,508.5C 591.812,510.99 595.478,512.657 599.5,513.5C 599.5,514.833 599.5,516.167 599.5,517.5C 594.413,518.529 589.746,520.529 585.5,523.5C 590.217,528.882 594.55,534.549 598.5,540.5C 596.138,543.192 593.804,545.859 591.5,548.5C 590.5,548 589.5,547.5 588.5,547C 585.028,541.894 581.194,537.06 577,532.5C 575.198,537.375 573.865,542.375 573,547.5C 571.951,549.107 570.451,549.773 568.5,549.5C 567.517,544.046 566.017,538.713 564,533.5C 554.574,543.431 544.74,552.764 534.5,561.5C 530.833,561.5 527.167,561.5 523.5,561.5C 505.258,544.76 487.424,527.427 470,509.5C 465.333,503.167 465.333,496.833 470,490.5C 488.138,472.19 505.972,454.524 523.5,437.5 Z"/></g>
<g><path style="opacity:0.805" fill="#000000" d="M 43.5,442.5 C 47.8806,441.534 50.8806,443.034 52.5,447C 49.4573,453.265 45.624,453.765 41,448.5C 40.3333,447.5 40.3333,446.5 41,445.5C 42.045,444.627 42.8783,443.627 43.5,442.5 Z"/></g>
<g><path style="opacity:0.795" fill="#000000" d="M 55.5,442.5 C 61.2214,441.025 64.3881,443.025 65,448.5C 60.6021,453.701 56.7688,453.368 53.5,447.5C 53.9024,445.7 54.5691,444.033 55.5,442.5 Z"/></g>
<g><path style="opacity:0.823" fill="#000000" d="M 345.5,442.5 C 349.007,441.994 352.174,442.66 355,444.5C 355.538,450.519 352.705,452.686 346.5,451C 344.162,448.458 343.828,445.625 345.5,442.5 Z"/></g>
<g><path style="opacity:0.807" fill="#000000" d="M 358.5,442.5 C 362.007,441.994 365.174,442.66 368,444.5C 368.171,450.313 365.338,452.48 359.5,451C 355.853,448.558 355.519,445.724 358.5,442.5 Z"/></g>
<g><path style="opacity:0.889" fill="#000000" d="M 75.5,450.5 C 89.4436,448.444 96.1103,454.444 95.5,468.5C 101.176,468.666 106.843,468.499 112.5,468C 113.297,464.255 113.797,460.421 114,456.5C 117,455.167 120,455.167 123,456.5C 122.948,460.656 123.781,464.49 125.5,468C 130.833,468.667 136.167,468.667 141.5,468C 142.297,464.255 142.797,460.421 143,456.5C 146,455.167 149,455.167 152,456.5C 152.175,460.211 152.675,463.878 153.5,467.5C 156.883,469.228 159.55,468.561 161.5,465.5C 162.034,453.794 168.034,448.961 179.5,451C 185.204,453.399 187.871,457.733 187.5,464C 186.933,474.799 181.266,479.133 170.5,477C 169.391,476.362 168.225,475.862 167,475.5C 161.206,476.601 155.373,476.768 149.5,476C 148.344,474.385 147.011,474.385 145.5,476C 137.167,476.667 128.833,476.667 120.5,476C 119.167,474 117.833,474 116.5,476C 109.508,476.5 102.508,476.666 95.5,476.5C 94.6116,483.89 90.6116,488.723 83.5,491C 78.1357,491.829 72.8023,491.663 67.5,490.5C 66.6258,488.253 66.2924,485.92 66.5,483.5C 72.4018,484.038 78.0685,483.205 83.5,481C 84.2931,479.915 84.9598,478.748 85.5,477.5C 70.1285,476.317 65.2951,468.651 71,454.5C 72.3968,452.93 73.8968,451.596 75.5,450.5 Z M 80.5,458.5 C 82.3904,458.297 83.8904,458.963 85,460.5C 86.8683,467.578 84.8683,469.578 79,466.5C 78.1329,463.479 78.6329,460.812 80.5,458.5 Z M 173.5,458.5 C 179.039,459.239 180.705,462.239 178.5,467.5C 174.334,470.16 171.668,468.993 170.5,464C 170.613,461.601 171.613,459.768 173.5,458.5 Z"/></g>
<g><path style="opacity:0.886" fill="#000000" d="M 275.5,450.5 C 283.279,450.068 290.946,450.568 298.5,452C 301.803,455.795 302.303,459.962 300,464.5C 299.097,465.701 297.931,466.535 296.5,467C 300.811,469.148 304.977,468.981 309,466.5C 309.567,451.53 316.734,447.03 330.5,453C 333.722,456.511 335.222,460.678 335,465.5C 335.5,466.667 336.333,467.5 337.5,468C 342.833,468.667 348.167,468.667 353.5,468C 354.297,464.255 354.797,460.421 355,456.5C 358,455.167 361,455.167 364,456.5C 364.175,460.211 364.675,463.878 365.5,467.5C 376.828,469.252 387.161,466.752 396.5,460C 389.589,458.616 382.589,458.116 375.5,458.5C 375.5,455.833 375.5,453.167 375.5,450.5C 384.25,450.09 392.916,450.59 401.5,452C 405.688,455.203 407.521,459.37 407,464.5C 405.581,465.46 404.081,466.293 402.5,467C 405.793,468.608 409.127,468.775 412.5,467.5C 412.765,462.131 414.432,457.298 417.5,453C 429.733,447.116 437.066,450.783 439.5,464C 437.413,476.543 430.413,480.376 418.5,475.5C 412.886,476.621 407.22,476.788 401.5,476C 399,474.833 397.167,473 396,470.5C 392.016,472.718 387.85,474.551 383.5,476C 376.167,476.667 368.833,476.667 361.5,476C 359.989,474.385 358.656,474.385 357.5,476C 349.5,476.667 341.5,476.667 333.5,476C 332.975,475.308 332.308,474.808 331.5,474.5C 325.5,478.5 319.5,478.5 313.5,474.5C 312.5,475 311.5,475.5 310.5,476C 304.5,476.667 298.5,476.667 292.5,476C 290.064,475.07 287.731,473.903 285.5,472.5C 278.661,474.84 273.995,479.34 271.5,486C 272.503,490.676 275.169,494.009 279.5,496C 287.827,496.5 296.16,496.666 304.5,496.5C 304.827,499.482 304.827,502.315 304.5,505C 296.167,505.667 287.833,505.667 279.5,505C 266.729,500.937 261.562,492.437 264,479.5C 265.061,476.438 266.894,473.938 269.5,472C 272.672,470.248 275.672,468.248 278.5,466C 276.1,463.6 273.767,461.267 271.5,459C 273.238,456.357 274.572,453.523 275.5,450.5 Z M 283.5,459.5 C 286.355,458.197 289.355,458.197 292.5,459.5C 291.126,460.711 289.626,461.711 288,462.5C 286.357,461.685 284.857,460.685 283.5,459.5 Z M 320.5,458.5 C 322.484,458.383 324.15,459.05 325.5,460.5C 326.516,463.134 326.516,465.8 325.5,468.5C 319.542,470.072 317.042,467.739 318,461.5C 318.698,460.309 319.531,459.309 320.5,458.5 Z M 424.5,458.5 C 430.156,458.867 431.989,461.867 430,467.5C 427.803,469.731 425.47,469.731 423,467.5C 422.068,464.177 422.568,461.177 424.5,458.5 Z"/></g>
<g><path style="opacity:0.894" fill="#000000" d="M 22.5,455.5 C 25.1667,455.5 27.8333,455.5 30.5,455.5C 27.9642,465.916 31.9642,470.249 42.5,468.5C 45.4206,468.476 48.254,468.143 51,467.5C 52.3537,463.637 52.8537,459.637 52.5,455.5C 55.4475,455.223 58.2809,455.556 61,456.5C 64.1016,471.223 58.2682,477.89 43.5,476.5C 39.4483,476.468 35.4483,476.135 31.5,475.5C 27.4022,489.722 18.0689,494.889 3.5,491C 2.565,488.619 2.23166,486.119 2.5,483.5C 8.68026,484.171 14.5136,483.171 20,480.5C 21.1349,472.191 21.9683,463.858 22.5,455.5 Z"/></g>
<g><path style="opacity:1" fill="#e81d24" d="M 526.5,460.5 C 535.138,460.636 538.971,464.969 538,473.5C 531.918,481.41 525.918,481.41 520,473.5C 518.841,467.495 521.008,463.162 526.5,460.5 Z"/></g>
<g><path style="opacity:0.802" fill="#000000" d="M 131.5,480.5 C 137.551,481.118 139.217,483.951 136.5,489C 140.213,490.205 141.213,489.205 139.5,486C 141.307,480.6 144.64,479.433 149.5,482.5C 151.509,488.671 149.175,491.504 142.5,491C 144.994,493.244 144.994,495.577 142.5,498C 139.833,498.667 137.167,498.667 134.5,498C 132.558,496.028 132.224,493.861 133.5,491.5C 125.137,488.811 124.471,485.145 131.5,480.5 Z"/></g>
<g><path style="opacity:0.8" fill="#000000" d="M 381.5,481.5 C 387.989,480.632 390.489,483.299 389,489.5C 383.878,493.697 380.045,492.697 377.5,486.5C 378.127,484.213 379.46,482.546 381.5,481.5 Z"/></g>
<g><path style="opacity:0.834" fill="#000000" d="M 101.5,482.5 C 107.986,480.835 110.819,483.168 110,489.5C 107.447,491.729 104.614,492.062 101.5,490.5C 98.8477,487.799 98.8477,485.132 101.5,482.5 Z"/></g>
<g><path style="opacity:0.811" fill="#000000" d="M 113.5,482.5 C 116.187,482.336 118.854,482.503 121.5,483C 124.25,486.012 123.917,488.679 120.5,491C 113.256,492.254 110.923,489.421 113.5,482.5 Z"/></g>
<g><path style="opacity:1" fill="#e91d24" d="M 525.5,490.5 C 536.847,490.88 540.347,496.213 536,506.5C 529.101,511.255 523.768,509.922 520,502.5C 519.312,497.352 521.145,493.352 525.5,490.5 Z"/></g>
<g><path style="opacity:1" fill="#f8f8f8" d="M 556.5,499.5 C 556.56,498.957 556.893,498.624 557.5,498.5C 569.509,504.171 581.509,509.838 593.5,515.5C 588.611,516.768 584.611,519.268 581.5,523C 585.462,529.083 589.796,534.917 594.5,540.5C 593.52,541.981 592.353,543.315 591,544.5C 587.284,540.452 583.95,536.118 581,531.5C 579.54,528.79 577.54,528.124 575,529.5C 573.005,533.318 571.505,537.318 570.5,541.5C 566,527.334 561.334,513.334 556.5,499.5 Z"/></g>
<g><path style="opacity:0.424" fill="#000000" d="M 6.5,506.5 C 151.5,506.5 296.5,506.5 441.5,506.5C 441.5,507.5 441.5,508.5 441.5,509.5C 296.5,509.5 151.5,509.5 6.5,509.5C 6.5,508.5 6.5,507.5 6.5,506.5 Z"/></g>
<g><path style="opacity:0.828" fill="#000000" d="M 1.5,520.5 C 5.16667,520.5 8.83333,520.5 12.5,520.5C 12.5,528.5 12.5,536.5 12.5,544.5C 8.83333,544.5 5.16667,544.5 1.5,544.5C 1.5,536.5 1.5,528.5 1.5,520.5 Z"/></g>
<g><path style="opacity:0.847" fill="#000000" d="M 14.5,520.5 C 18.8839,520.174 23.2172,520.508 27.5,521.5C 29.3333,525.167 31.1667,528.833 33,532.5C 33.4988,528.514 33.6655,524.514 33.5,520.5C 35.924,520.192 38.2573,520.526 40.5,521.5C 39.7002,528.784 39.2002,536.117 39,543.5C 35,544.833 31,544.833 27,543.5C 24.7263,539.286 22.7263,534.953 21,530.5C 20.2073,534.423 20.374,538.256 21.5,542C 19.6259,544.455 17.2925,544.955 14.5,543.5C 14.4969,535.804 14.4969,528.137 14.5,520.5 Z"/></g>
<g><path style="opacity:0.871" fill="#000000" d="M 41.5,520.5 C 48.8635,520.169 56.1968,520.503 63.5,521.5C 64.3094,523.071 64.6427,524.738 64.5,526.5C 62.1667,526.5 59.8333,526.5 57.5,526.5C 57.2418,531.717 57.5751,536.884 58.5,542C 58.3552,542.772 58.0219,543.439 57.5,544C 54.1667,544.667 50.8333,544.667 47.5,544C 46.9781,543.439 46.6448,542.772 46.5,542C 47.4249,536.884 47.7582,531.717 47.5,526.5C 45.1667,526.5 42.8333,526.5 40.5,526.5C 40.8333,524.5 41.1667,522.5 41.5,520.5 Z"/></g>
<g><path style="opacity:0.825" fill="#000000" d="M 65.5,520.5 C 72.1998,520.17 78.8665,520.503 85.5,521.5C 86.3094,523.071 86.6427,524.738 86.5,526.5C 83.1016,526.18 79.7683,526.513 76.5,527.5C 79.4281,528.484 82.4281,528.817 85.5,528.5C 85.5,530.833 85.5,533.167 85.5,535.5C 82.5448,534.841 79.5448,534.508 76.5,534.5C 76.5,535.5 76.5,536.5 76.5,537.5C 79.8333,537.5 83.1667,537.5 86.5,537.5C 86.7564,539.792 86.4231,541.959 85.5,544C 78.8417,544.5 72.175,544.666 65.5,544.5C 65.5,536.5 65.5,528.5 65.5,520.5 Z"/></g>
<g><path style="opacity:0.866" fill="#000000" d="M 90.5,520.5 C 97.1667,520.5 103.833,520.5 110.5,520.5C 110.854,522.541 110.854,524.374 110.5,526C 106.129,526.172 101.796,526.672 97.5,527.5C 102.456,528.494 107.456,528.827 112.5,528.5C 111.518,533.767 111.185,538.934 111.5,544C 105.204,543.629 98.8706,543.629 92.5,544C 90.714,543.215 89.214,542.049 88,540.5C 87.3333,534.833 87.3333,529.167 88,523.5C 89.045,522.627 89.8783,521.627 90.5,520.5 Z M 97.5,534.5 C 98.8333,534.5 100.167,534.5 101.5,534.5C 101.5,535.5 101.5,536.5 101.5,537.5C 100.167,537.5 98.8333,537.5 97.5,537.5C 97.5,536.5 97.5,535.5 97.5,534.5 Z"/></g>
<g><path style="opacity:0.858" fill="#000000" d="M 113.5,520.5 C 120.841,520.334 128.174,520.5 135.5,521C 139.446,525.796 139.446,530.63 135.5,535.5C 136.414,537.664 137.581,539.664 139,541.5C 143.311,535.061 146.144,528.061 147.5,520.5C 151.555,520.176 155.555,520.509 159.5,521.5C 162.225,528.616 165.225,535.616 168.5,542.5C 168.291,543.086 167.957,543.586 167.5,544C 163.833,544.667 160.167,544.667 156.5,544C 156.056,542.467 155.723,540.967 155.5,539.5C 152.572,538.516 149.572,538.183 146.5,538.5C 146.739,540.467 146.406,542.301 145.5,544C 139.987,544.169 134.32,544.169 128.5,544C 127.204,541.239 126.037,538.405 125,535.5C 124.782,538.426 124.282,541.26 123.5,544C 120.183,544.498 116.85,544.665 113.5,544.5C 113.42,536.29 113.42,528.29 113.5,520.5 Z M 124.5,526.5 C 125.675,526.281 126.675,526.614 127.5,527.5C 125.948,528.798 124.948,528.465 124.5,526.5 Z M 150.5,529.5 C 152.332,530.14 152.665,531.14 151.5,532.5C 150.614,531.675 150.281,530.675 150.5,529.5 Z"/></g>
<g><path style="opacity:0.869" fill="#000000" d="M 168.5,520.5 C 175.863,520.169 183.197,520.503 190.5,521.5C 191.309,523.071 191.643,524.738 191.5,526.5C 189.167,526.5 186.833,526.5 184.5,526.5C 184.242,531.717 184.575,536.884 185.5,542C 185.355,542.772 185.022,543.439 184.5,544C 181.167,544.667 177.833,544.667 174.5,544C 173.978,543.439 173.645,542.772 173.5,542C 174.425,536.884 174.758,531.717 174.5,526.5C 172.167,526.5 169.833,526.5 167.5,526.5C 167.517,524.435 167.85,522.435 168.5,520.5 Z"/></g>
<g><path style="opacity:0.822" fill="#000000" d="M 192.5,520.5 C 199.2,520.17 205.866,520.503 212.5,521.5C 213.309,523.071 213.643,524.738 213.5,526.5C 210.102,526.18 206.768,526.513 203.5,527.5C 206.428,528.484 209.428,528.817 212.5,528.5C 212.5,530.833 212.5,533.167 212.5,535.5C 209.545,534.841 206.545,534.508 203.5,534.5C 203.5,535.5 203.5,536.5 203.5,537.5C 206.833,537.5 210.167,537.5 213.5,537.5C 213.756,539.792 213.423,541.959 212.5,544C 205.842,544.5 199.175,544.666 192.5,544.5C 192.5,536.5 192.5,528.5 192.5,520.5 Z"/></g>
<g><path style="opacity:0.852" fill="#000000" d="M 214.5,520.5 C 221.508,520.334 228.508,520.5 235.5,521C 238.59,523.929 239.923,527.596 239.5,532C 239.733,536.072 238.733,539.739 236.5,543C 229.239,544.348 221.906,544.848 214.5,544.5C 214.5,536.5 214.5,528.5 214.5,520.5 Z M 225.5,526.5 C 226.5,526.5 227.5,526.5 228.5,526.5C 228.5,530.167 228.5,533.833 228.5,537.5C 227.5,537.5 226.5,537.5 225.5,537.5C 225.5,533.833 225.5,530.167 225.5,526.5 Z"/></g>
<g><path style="opacity:0.833" fill="#000000" d="M 267.5,538.5 C 267.167,540.5 266.833,542.5 266.5,544.5C 260.407,544.861 254.407,544.361 248.5,543C 244.525,535.801 244.525,528.634 248.5,521.5C 254.439,520.543 260.439,520.21 266.5,520.5C 266.5,522.5 266.5,524.5 266.5,526.5C 263.167,526.5 259.833,526.5 256.5,526.5C 256.334,530.514 256.501,534.514 257,538.5C 260.499,537.203 263.999,537.203 267.5,538.5 Z"/></g>
<g><path style="opacity:0.876" fill="#000000" d="M 267.5,538.5 C 267.334,534.154 267.501,529.821 268,525.5C 268.273,523.671 269.107,522.171 270.5,521C 276.833,520.333 283.167,520.333 289.5,521C 290.308,521.308 290.975,521.808 291.5,522.5C 292.624,528.448 292.79,534.448 292,540.5C 291.626,541.416 291.126,542.25 290.5,543C 283.833,545 277.167,545 270.5,543C 269.219,541.591 268.219,540.091 267.5,538.5 Z M 278.5,526.5 C 279.833,526.5 281.167,526.5 282.5,526.5C 282.5,530.167 282.5,533.833 282.5,537.5C 281.178,537.33 280.011,537.663 279,538.5C 278.501,534.514 278.334,530.514 278.5,526.5 Z"/></g>
<g><path style="opacity:0.869" fill="#000000" d="M 293.5,520.5 C 298.167,520.5 302.833,520.5 307.5,520.5C 308.022,523.568 308.855,526.568 310,529.5C 310.78,526.488 311.947,523.655 313.5,521C 317.486,520.501 321.486,520.334 325.5,520.5C 325.5,528.5 325.5,536.5 325.5,544.5C 321.894,544.789 318.394,544.456 315,543.5C 315.369,540.21 315.369,536.877 315,533.5C 313.932,536.871 312.765,540.204 311.5,543.5C 308.914,544.48 306.247,544.813 303.5,544.5C 301.236,531.387 300.236,531.387 300.5,544.5C 298.473,544.662 296.473,544.495 294.5,544C 294.043,543.586 293.709,543.086 293.5,542.5C 294.798,535.167 294.798,527.834 293.5,520.5 Z"/></g>
<g><path style="opacity:0.859" fill="#000000" d="M 326.5,520.5 C 333.841,520.334 341.174,520.5 348.5,521C 349.701,521.903 350.535,523.069 351,524.5C 351.49,523.207 351.657,521.873 351.5,520.5C 355.167,520.5 358.833,520.5 362.5,520.5C 362.5,526.167 362.5,531.833 362.5,537.5C 365.167,537.5 367.833,537.5 370.5,537.5C 370.5,531.833 370.5,526.167 370.5,520.5C 372.924,520.192 375.257,520.526 377.5,521.5C 376.167,526.167 376.167,530.833 377.5,535.5C 376.01,542.747 371.51,545.747 364,544.5C 360.214,544.776 356.714,543.943 353.5,542C 352.024,538.688 351.19,535.188 351,531.5C 350.89,533.848 349.723,535.348 347.5,536C 344.183,536.498 340.85,536.665 337.5,536.5C 337.892,539.146 337.892,541.646 337.5,544C 333.909,544.789 330.409,544.622 327,543.5C 327.801,535.875 327.634,528.208 326.5,520.5 Z M 337.5,526.5 C 338.5,526.5 339.5,526.5 340.5,526.5C 340.5,527.833 340.5,529.167 340.5,530.5C 339.5,530.5 338.5,530.5 337.5,530.5C 337.5,529.167 337.5,527.833 337.5,526.5 Z"/></g>
<g><path style="opacity:0.846" fill="#000000" d="M 378.5,520.5 C 386.167,520.5 393.833,520.5 401.5,520.5C 401.5,522.5 401.5,524.5 401.5,526.5C 399.5,526.5 397.5,526.5 395.5,526.5C 395.5,532.5 395.5,538.5 395.5,544.5C 391.833,544.5 388.167,544.5 384.5,544.5C 384.5,538.5 384.5,532.5 384.5,526.5C 382.5,526.5 380.5,526.5 378.5,526.5C 378.5,524.5 378.5,522.5 378.5,520.5 Z"/></g>
<g><path style="opacity:0.839" fill="#000000" d="M 402.5,520.5 C 409.5,520.5 416.5,520.5 423.5,520.5C 423.5,522.5 423.5,524.5 423.5,526.5C 411.138,526.833 410.804,527.666 422.5,529C 423.866,531.382 423.533,533.548 421.5,535.5C 418.916,534.607 416.249,534.274 413.5,534.5C 413.5,535.5 413.5,536.5 413.5,537.5C 416.85,537.335 420.183,537.502 423.5,538C 423.784,539.956 423.784,542.123 423.5,544.5C 416.578,544.812 409.744,544.479 403,543.5C 403.829,535.85 403.663,528.183 402.5,520.5 Z"/></g>
<g><path style="opacity:0.86" fill="#000000" d="M 424.5,520.5 C 432.223,520.2 439.89,520.533 447.5,521.5C 448.993,523.364 449.66,525.53 449.5,528C 449.919,530.981 448.919,533.314 446.5,535C 448.533,537.896 449.866,541.063 450.5,544.5C 446.833,544.5 443.167,544.5 439.5,544.5C 438.633,541.092 437.467,537.758 436,534.5C 435.748,537.667 435.582,540.667 435.5,543.5C 431.955,544.791 428.455,544.791 425,543.5C 424.548,535.785 424.382,528.118 424.5,520.5 Z M 435.5,526.5 C 436.675,526.281 437.675,526.614 438.5,527.5C 436.948,528.798 435.948,528.465 435.5,526.5 Z"/></g>
<g><path style="opacity:1" fill="#e91d24" d="M 525.5,520.5 C 534.462,519.704 538.628,523.704 538,532.5C 534.521,539.651 529.354,541.151 522.5,537C 517.853,530.374 518.853,524.874 525.5,520.5 Z"/></g>
</svg>
